<?xml version="1.0" standalone="no"?>
<!DOCTYPE svg PUBLIC "-//W3C//DTD SVG 20010904//EN"
 "http://www.w3.org/TR/2001/REC-SVG-20010904/DTD/svg10.dtd">
<svg version="1.0" xmlns="http://www.w3.org/2000/svg"
 width="700.000000pt" height="700.000000pt" viewBox="0 0 700.000000 700.000000"
 preserveAspectRatio="xMidYMid meet">
<metadata>
Created by potrace 1.11, written by Peter Selinger 2001-2013
</metadata>
<g transform="translate(0.000000,700.000000) scale(0.100000,-0.100000)"
fill="#000000" stroke="none">
<path d="M3285 6994 c-184 -19 -255 -28 -355 -45 -545 -96 -1053 -328 -1495
-682 -128 -103 -389 -364 -486 -487 -400 -503 -622 -1029 -711 -1680 -18 -130
-17 -631 1 -770 74 -576 287 -1111 624 -1565 390 -525 914 -916 1532 -1140
140 -51 434 -129 530 -140 l60 -7 241 -239 c217 -215 244 -239 274 -239 30 0
57 24 274 239 l241 239 60 7 c174 21 541 134 770 237 972 437 1686 1342 1880
2383 44 240 50 308 50 610 0 344 -18 501 -87 779 -151 611 -460 1148 -909
1581 -518 500 -1156 805 -1884 901 -106 14 -527 26 -610 18z m-128 -2165 c87
-32 135 -139 102 -226 -11 -31 -53 -78 -84 -96 -14 -9 -182 -13 -587 -17
l-567 -5 -23 -23 -23 -23 -3 -702 c-1 -386 0 -712 3 -725 3 -12 14 -31 25 -42
19 -19 36 -20 558 -20 295 0 555 -5 576 -10 54 -12 87 -38 114 -90 52 -102 2
-219 -107 -251 -24 -7 -262 -9 -722 -7 l-686 3 -37 29 c-21 15 -46 42 -57 60
-18 30 -19 64 -19 1031 l0 1000 23 40 c13 22 40 49 62 62 l40 23 692 0 c465 0
701 -3 720 -11z m2138 -12 c22 -13 49 -40 62 -62 l23 -40 0 -524 0 -524 -25
-43 c-16 -28 -39 -49 -68 -63 -42 -21 -55 -21 -585 -21 -334 0 -551 -4 -567
-10 -52 -20 -55 -46 -55 -447 0 -345 -1 -370 -19 -399 -69 -112 -218 -122
-297 -18 l-29 37 -3 986 c-1 542 0 1001 3 1019 7 39 58 100 100 118 24 11 173
13 725 13 l695 1 40 -23z"/>
<path d="M4134 4476 c-48 -21 -54 -54 -54 -286 0 -213 7 -262 40 -280 11 -6
189 -10 435 -10 462 -1 458 -1 470 62 3 18 5 133 3 255 -3 216 -4 223 -26 245
l-23 23 -407 2 c-328 2 -413 0 -438 -11z"/>
</g>
</svg>
